<?xml version="1.0" encoding="UTF-8"?>
<svg xmlns="http://www.w3.org/2000/svg" xmlns:xlink="http://www.w3.org/1999/xlink" width="4000" height="4000" viewBox="0 0 4000 4000">
<defs>
<clipPath id="clip-0">

</clipPath>
<clipPath id="clip-1">
<path clip-rule="nonzero" d="M 3536.960938 1999.980469 C 3536.960938 2848.839844 2848.828125 3536.96875 1999.96875 3536.96875 C 1151.121094 3536.96875 462.984375 2848.839844 462.984375 1999.980469 C 462.984375 1151.128906 1151.121094 463 1999.96875 463 C 2848.828125 463 3536.960938 1151.128906 3536.960938 1999.980469 Z M 3536.960938 1999.980469 "/>
</clipPath>
<clipPath id="clip-2">
<path clip-rule="nonzero" d="M 3536.960938 1999.980469 C 3536.960938 2848.839844 2848.828125 3536.96875 1999.96875 3536.96875 C 1151.121094 3536.96875 462.984375 2848.839844 462.984375 1999.980469 C 462.984375 1151.128906 1151.121094 463 1999.96875 463 C 2848.828125 463 3536.960938 1151.128906 3536.960938 1999.980469 "/>
</clipPath>
<linearGradient id="linear-pattern-0" gradientUnits="userSpaceOnUse" x1="0" y1="0" x2="0.999999" y2="0" gradientTransform="matrix(3073.98, 0, 0, 3073.98, 462.984, 1999.98)">
<stop offset="0" stop-color="rgb(92.06543%, 16.900635%, 25.135803%)" stop-opacity="1"/>
<stop offset="0.03125" stop-color="rgb(91.921997%, 16.917419%, 25.151062%)" stop-opacity="1"/>
<stop offset="0.046875" stop-color="rgb(91.629028%, 16.903687%, 25.120544%)" stop-opacity="1"/>
<stop offset="0.0625" stop-color="rgb(91.343689%, 17.03186%, 25.175476%)" stop-opacity="1"/>
<stop offset="0.09375" stop-color="rgb(91.200256%, 17.198181%, 25.283813%)" stop-opacity="1"/>
<stop offset="0.109375" stop-color="rgb(91.059875%, 17.222595%, 25.305176%)" stop-opacity="1"/>
<stop offset="0.125" stop-color="rgb(90.913391%, 17.222595%, 25.401306%)" stop-opacity="1"/>
<stop offset="0.140625" stop-color="rgb(90.779114%, 17.366028%, 25.511169%)" stop-opacity="1"/>
<stop offset="0.15625" stop-color="rgb(90.644836%, 17.550659%, 25.543213%)" stop-opacity="1"/>
<stop offset="0.171875" stop-color="rgb(90.50293%, 17.588806%, 25.558472%)" stop-opacity="1"/>
<stop offset="0.1875" stop-color="rgb(90.354919%, 17.590332%, 25.648499%)" stop-opacity="1"/>
<stop offset="0.203125" stop-color="rgb(90.220642%, 17.723083%, 25.759888%)" stop-opacity="1"/>
<stop offset="0.21875" stop-color="rgb(89.970398%, 17.91687%, 25.810242%)" stop-opacity="1"/>
<stop offset="0.25" stop-color="rgb(89.692688%, 18.093872%, 25.915527%)" stop-opacity="1"/>
<stop offset="0.265625" stop-color="rgb(89.303589%, 18.252563%, 26.008606%)" stop-opacity="1"/>
<stop offset="0.28125" stop-color="rgb(88.873291%, 18.405151%, 26.017761%)" stop-opacity="1"/>
<stop offset="0.296875" stop-color="rgb(88.65509%, 18.571472%, 26.095581%)" stop-opacity="1"/>
<stop offset="0.3125" stop-color="rgb(88.520813%, 18.730164%, 26.208496%)" stop-opacity="1"/>
<stop offset="0.328125" stop-color="rgb(88.285828%, 18.917847%, 26.269531%)" stop-opacity="1"/>
<stop offset="0.34375" stop-color="rgb(87.997437%, 18.998718%, 26.304626%)" stop-opacity="1"/>
<stop offset="0.359375" stop-color="rgb(87.808228%, 19.12384%, 26.330566%)" stop-opacity="1"/>
<stop offset="0.375" stop-color="rgb(87.580872%, 19.282532%, 26.321411%)" stop-opacity="1"/>
<stop offset="0.390625" stop-color="rgb(87.205505%, 19.430542%, 26.303101%)" stop-opacity="1"/>
<stop offset="0.40625" stop-color="rgb(86.868286%, 19.610596%, 26.322937%)" stop-opacity="1"/>
<stop offset="0.421875" stop-color="rgb(86.581421%, 19.691467%, 26.409912%)" stop-opacity="1"/>
<stop offset="0.4375" stop-color="rgb(86.376953%, 19.787598%, 26.530457%)" stop-opacity="1"/>
<stop offset="0.453125" stop-color="rgb(86.161804%, 19.940186%, 26.565552%)" stop-opacity="1"/>
<stop offset="0.46875" stop-color="rgb(85.794067%, 19.995117%, 26.541138%)" stop-opacity="1"/>
<stop offset="0.484375" stop-color="rgb(85.441589%, 20.088196%, 26.553345%)" stop-opacity="1"/>
<stop offset="0.5" stop-color="rgb(85.232544%, 20.271301%, 26.586914%)" stop-opacity="1"/>
<stop offset="0.515625" stop-color="rgb(85.093689%, 20.362854%, 26.60675%)" stop-opacity="1"/>
<stop offset="0.53125" stop-color="rgb(84.80835%, 20.358276%, 26.649475%)" stop-opacity="1"/>
<stop offset="0.546875" stop-color="rgb(84.376526%, 20.404053%, 26.725769%)" stop-opacity="1"/>
<stop offset="0.5625" stop-color="rgb(84.016418%, 20.56427%, 26.786804%)" stop-opacity="1"/>
<stop offset="0.59375" stop-color="rgb(83.732605%, 20.677185%, 26.823425%)" stop-opacity="1"/>
<stop offset="0.609375" stop-color="rgb(83.390808%, 20.744324%, 26.875305%)" stop-opacity="1"/>
<stop offset="0.625" stop-color="rgb(82.965088%, 20.877075%, 26.956177%)" stop-opacity="1"/>
<stop offset="0.65625" stop-color="rgb(82.543945%, 20.951843%, 26.998901%)" stop-opacity="1"/>
<stop offset="0.671875" stop-color="rgb(82.115173%, 20.932007%, 27.008057%)" stop-opacity="1"/>
<stop offset="0.6875" stop-color="rgb(81.733704%, 20.965576%, 27.099609%)" stop-opacity="1"/>
<stop offset="0.703125" stop-color="rgb(81.451416%, 21.124268%, 27.183533%)" stop-opacity="1"/>
<stop offset="0.71875" stop-color="rgb(81.173706%, 21.205139%, 27.153015%)" stop-opacity="1"/>
<stop offset="0.734375" stop-color="rgb(80.888367%, 21.188354%, 27.159119%)" stop-opacity="1"/>
<stop offset="0.75" stop-color="rgb(80.563354%, 21.188354%, 27.268982%)" stop-opacity="1"/>
<stop offset="0.765625" stop-color="rgb(80.171204%, 21.195984%, 27.313232%)" stop-opacity="1"/>
<stop offset="0.78125" stop-color="rgb(79.930115%, 21.331787%, 27.31781%)" stop-opacity="1"/>
<stop offset="0.796875" stop-color="rgb(79.728699%, 21.443176%, 27.427673%)" stop-opacity="1"/>
<stop offset="0.8125" stop-color="rgb(79.302979%, 21.41571%, 27.474976%)" stop-opacity="1"/>
<stop offset="0.828125" stop-color="rgb(78.930664%, 21.430969%, 27.462769%)" stop-opacity="1"/>
<stop offset="0.84375" stop-color="rgb(78.771973%, 21.589661%, 27.494812%)" stop-opacity="1"/>
<stop offset="0.859375" stop-color="rgb(78.471375%, 21.67511%, 27.560425%)" stop-opacity="1"/>
<stop offset="0.875" stop-color="rgb(78.068542%, 21.644592%, 27.612305%)" stop-opacity="1"/>
<stop offset="0.890625" stop-color="rgb(77.790833%, 21.614075%, 27.583313%)" stop-opacity="1"/>
<stop offset="0.90625" stop-color="rgb(77.497864%, 21.572876%, 27.636719%)" stop-opacity="1"/>
<stop offset="0.9375" stop-color="rgb(77.069092%, 21.539307%, 27.694702%)" stop-opacity="1"/>
<stop offset="0.953125" stop-color="rgb(76.527405%, 21.469116%, 27.708435%)" stop-opacity="1"/>
<stop offset="0.96875" stop-color="rgb(76.113892%, 21.443176%, 27.770996%)" stop-opacity="1"/>
<stop offset="0.984375" stop-color="rgb(75.842285%, 21.551514%, 27.833557%)" stop-opacity="1"/>
<stop offset="1" stop-color="rgb(75.570679%, 21.655273%, 27.893066%)" stop-opacity="1"/>
</linearGradient>
<clipPath id="clip-3">
<path clip-rule="nonzero" d="M 512 513 L 3487 513 L 3487 3487 L 512 3487 Z M 512 513 "/>
</clipPath>
<clipPath id="clip-4">
<path clip-rule="nonzero" d="M 1999.96875 3486.96875 C 1799.210938 3486.96875 1604.480469 3447.671875 1421.179688 3370.140625 C 1333.078125 3332.878906 1248.109375 3286.75 1168.621094 3233.050781 C 1089.871094 3179.851562 1015.808594 3118.75 948.511719 3051.449219 C 881.210938 2984.140625 820.109375 2910.089844 766.910156 2831.339844 C 713.203125 2751.851562 667.082031 2666.871094 629.820312 2578.769531 C 552.292969 2395.480469 512.984375 2200.75 512.984375 1999.980469 C 512.984375 1799.21875 552.292969 1604.488281 629.820312 1421.199219 C 667.082031 1333.101562 713.203125 1248.121094 766.910156 1168.628906 C 820.109375 1089.878906 881.210938 1015.828125 948.511719 948.519531 C 1015.808594 881.21875 1089.871094 820.121094 1168.621094 766.921875 C 1248.109375 713.21875 1333.078125 667.089844 1421.179688 629.828125 C 1604.480469 552.308594 1799.210938 513 1999.96875 513 C 2200.738281 513 2395.46875 552.308594 2578.761719 629.828125 C 2666.859375 667.089844 2751.839844 713.21875 2831.328125 766.921875 C 2910.078125 820.121094 2984.128906 881.21875 3051.429688 948.519531 C 3118.730469 1015.828125 3179.828125 1089.878906 3233.039062 1168.628906 C 3286.738281 1248.121094 3332.859375 1333.101562 3370.128906 1421.199219 C 3447.648438 1604.488281 3486.960938 1799.21875 3486.960938 1999.980469 C 3486.960938 2200.75 3447.648438 2395.480469 3370.128906 2578.769531 C 3332.859375 2666.871094 3286.738281 2751.851562 3233.039062 2831.339844 C 3179.828125 2910.089844 3118.730469 2984.140625 3051.429688 3051.449219 C 2984.128906 3118.75 2910.078125 3179.851562 2831.328125 3233.050781 C 2751.839844 3286.75 2666.859375 3332.878906 2578.761719 3370.140625 C 2395.46875 3447.671875 2200.738281 3486.96875 1999.96875 3486.96875 Z M 1999.96875 3486.96875 "/>
</clipPath>
<clipPath id="clip-5">
<path clip-rule="nonzero" d="M 1999.96875 3486.96875 C 1799.210938 3486.96875 1604.480469 3447.671875 1421.179688 3370.140625 C 1333.078125 3332.878906 1248.109375 3286.75 1168.621094 3233.050781 C 1089.871094 3179.851562 1015.808594 3118.75 948.511719 3051.449219 C 881.210938 2984.140625 820.109375 2910.089844 766.910156 2831.339844 C 713.203125 2751.851562 667.082031 2666.871094 629.820312 2578.769531 C 552.292969 2395.480469 512.984375 2200.75 512.984375 1999.980469 C 512.984375 1799.21875 552.292969 1604.488281 629.820312 1421.199219 C 667.082031 1333.101562 713.203125 1248.121094 766.910156 1168.628906 C 820.109375 1089.878906 881.210938 1015.828125 948.511719 948.519531 C 1015.808594 881.21875 1089.871094 820.121094 1168.621094 766.921875 C 1248.109375 713.21875 1333.078125 667.089844 1421.179688 629.828125 C 1604.480469 552.308594 1799.210938 513 1999.96875 513 C 2200.738281 513 2395.46875 552.308594 2578.761719 629.828125 C 2666.859375 667.089844 2751.839844 713.21875 2831.328125 766.921875 C 2910.078125 820.121094 2984.128906 881.21875 3051.429688 948.519531 C 3118.730469 1015.828125 3179.828125 1089.878906 3233.039062 1168.628906 C 3286.738281 1248.121094 3332.859375 1333.101562 3370.128906 1421.199219 C 3447.648438 1604.488281 3486.960938 1799.21875 3486.960938 1999.980469 C 3486.960938 2200.75 3447.648438 2395.480469 3370.128906 2578.769531 C 3332.859375 2666.871094 3286.738281 2751.851562 3233.039062 2831.339844 C 3179.828125 2910.089844 3118.730469 2984.140625 3051.429688 3051.449219 C 2984.128906 3118.75 2910.078125 3179.851562 2831.328125 3233.050781 C 2751.839844 3286.75 2666.859375 3332.878906 2578.761719 3370.140625 C 2395.46875 3447.671875 2200.738281 3486.96875 1999.96875 3486.96875 "/>
</clipPath>
<linearGradient id="linear-pattern-1" gradientUnits="userSpaceOnUse" x1="0" y1="0" x2="0.999999" y2="0" gradientTransform="matrix(2973.98, 0, 0, 2973.98, 512.984, 1999.99)">
<stop offset="0" stop-color="rgb(75.428772%, 21.66748%, 27.909851%)" stop-opacity="1"/>
<stop offset="0.015625" stop-color="rgb(75.570679%, 21.655273%, 27.893066%)" stop-opacity="1"/>
<stop offset="0.03125" stop-color="rgb(75.842285%, 21.551514%, 27.833557%)" stop-opacity="1"/>
<stop offset="0.046875" stop-color="rgb(76.113892%, 21.443176%, 27.770996%)" stop-opacity="1"/>
<stop offset="0.0625" stop-color="rgb(76.527405%, 21.469116%, 27.708435%)" stop-opacity="1"/>
<stop offset="0.09375" stop-color="rgb(77.069092%, 21.539307%, 27.694702%)" stop-opacity="1"/>
<stop offset="0.109375" stop-color="rgb(77.497864%, 21.572876%, 27.636719%)" stop-opacity="1"/>
<stop offset="0.125" stop-color="rgb(77.790833%, 21.614075%, 27.583313%)" stop-opacity="1"/>
<stop offset="0.140625" stop-color="rgb(78.068542%, 21.644592%, 27.612305%)" stop-opacity="1"/>
<stop offset="0.15625" stop-color="rgb(78.471375%, 21.67511%, 27.560425%)" stop-opacity="1"/>
<stop offset="0.171875" stop-color="rgb(78.771973%, 21.589661%, 27.494812%)" stop-opacity="1"/>
<stop offset="0.1875" stop-color="rgb(78.930664%, 21.430969%, 27.462769%)" stop-opacity="1"/>
<stop offset="0.203125" stop-color="rgb(79.302979%, 21.41571%, 27.474976%)" stop-opacity="1"/>
<stop offset="0.21875" stop-color="rgb(79.728699%, 21.443176%, 27.427673%)" stop-opacity="1"/>
<stop offset="0.234375" stop-color="rgb(79.930115%, 21.331787%, 27.31781%)" stop-opacity="1"/>
<stop offset="0.25" stop-color="rgb(80.171204%, 21.195984%, 27.313232%)" stop-opacity="1"/>
<stop offset="0.265625" stop-color="rgb(80.563354%, 21.188354%, 27.268982%)" stop-opacity="1"/>
<stop offset="0.28125" stop-color="rgb(80.888367%, 21.188354%, 27.159119%)" stop-opacity="1"/>
<stop offset="0.296875" stop-color="rgb(81.173706%, 21.205139%, 27.153015%)" stop-opacity="1"/>
<stop offset="0.3125" stop-color="rgb(81.451416%, 21.124268%, 27.183533%)" stop-opacity="1"/>
<stop offset="0.328125" stop-color="rgb(81.733704%, 20.965576%, 27.099609%)" stop-opacity="1"/>
<stop offset="0.34375" stop-color="rgb(82.115173%, 20.932007%, 27.008057%)" stop-opacity="1"/>
<stop offset="0.375" stop-color="rgb(82.543945%, 20.951843%, 26.998901%)" stop-opacity="1"/>
<stop offset="0.390625" stop-color="rgb(82.965088%, 20.877075%, 26.956177%)" stop-opacity="1"/>
<stop offset="0.40625" stop-color="rgb(83.390808%, 20.744324%, 26.875305%)" stop-opacity="1"/>
<stop offset="0.4375" stop-color="rgb(83.732605%, 20.677185%, 26.823425%)" stop-opacity="1"/>
<stop offset="0.453125" stop-color="rgb(84.016418%, 20.56427%, 26.786804%)" stop-opacity="1"/>
<stop offset="0.46875" stop-color="rgb(84.376526%, 20.404053%, 26.725769%)" stop-opacity="1"/>
<stop offset="0.484375" stop-color="rgb(84.80835%, 20.358276%, 26.649475%)" stop-opacity="1"/>
<stop offset="0.5" stop-color="rgb(85.093689%, 20.362854%, 26.60675%)" stop-opacity="1"/>
<stop offset="0.515625" stop-color="rgb(85.232544%, 20.271301%, 26.586914%)" stop-opacity="1"/>
<stop offset="0.53125" stop-color="rgb(85.441589%, 20.088196%, 26.553345%)" stop-opacity="1"/>
<stop offset="0.546875" stop-color="rgb(85.794067%, 19.995117%, 26.541138%)" stop-opacity="1"/>
<stop offset="0.5625" stop-color="rgb(86.161804%, 19.940186%, 26.565552%)" stop-opacity="1"/>
<stop offset="0.578125" stop-color="rgb(86.376953%, 19.787598%, 26.530457%)" stop-opacity="1"/>
<stop offset="0.59375" stop-color="rgb(86.581421%, 19.691467%, 26.409912%)" stop-opacity="1"/>
<stop offset="0.609375" stop-color="rgb(86.868286%, 19.610596%, 26.322937%)" stop-opacity="1"/>
<stop offset="0.625" stop-color="rgb(87.205505%, 19.430542%, 26.303101%)" stop-opacity="1"/>
<stop offset="0.640625" stop-color="rgb(87.580872%, 19.282532%, 26.321411%)" stop-opacity="1"/>
<stop offset="0.65625" stop-color="rgb(87.808228%, 19.12384%, 26.330566%)" stop-opacity="1"/>
<stop offset="0.671875" stop-color="rgb(87.997437%, 18.998718%, 26.304626%)" stop-opacity="1"/>
<stop offset="0.6875" stop-color="rgb(88.285828%, 18.917847%, 26.269531%)" stop-opacity="1"/>
<stop offset="0.703125" stop-color="rgb(88.520813%, 18.730164%, 26.208496%)" stop-opacity="1"/>
<stop offset="0.71875" stop-color="rgb(88.65509%, 18.571472%, 26.095581%)" stop-opacity="1"/>
<stop offset="0.734375" stop-color="rgb(88.873291%, 18.405151%, 26.017761%)" stop-opacity="1"/>
<stop offset="0.75" stop-color="rgb(89.303589%, 18.252563%, 26.008606%)" stop-opacity="1"/>
<stop offset="0.78125" stop-color="rgb(89.692688%, 18.093872%, 25.915527%)" stop-opacity="1"/>
<stop offset="0.796875" stop-color="rgb(89.970398%, 17.91687%, 25.810242%)" stop-opacity="1"/>
<stop offset="0.8125" stop-color="rgb(90.220642%, 17.723083%, 25.759888%)" stop-opacity="1"/>
<stop offset="0.828125" stop-color="rgb(90.354919%, 17.590332%, 25.648499%)" stop-opacity="1"/>
<stop offset="0.84375" stop-color="rgb(90.50293%, 17.588806%, 25.558472%)" stop-opacity="1"/>
<stop offset="0.859375" stop-color="rgb(90.644836%, 17.550659%, 25.543213%)" stop-opacity="1"/>
<stop offset="0.875" stop-color="rgb(90.779114%, 17.366028%, 25.511169%)" stop-opacity="1"/>
<stop offset="0.890625" stop-color="rgb(90.913391%, 17.222595%, 25.401306%)" stop-opacity="1"/>
<stop offset="0.90625" stop-color="rgb(91.059875%, 17.222595%, 25.305176%)" stop-opacity="1"/>
<stop offset="0.9375" stop-color="rgb(91.200256%, 17.198181%, 25.283813%)" stop-opacity="1"/>
<stop offset="0.953125" stop-color="rgb(91.343689%, 17.03186%, 25.175476%)" stop-opacity="1"/>
<stop offset="0.96875" stop-color="rgb(91.627502%, 16.903687%, 25.120544%)" stop-opacity="1"/>
<stop offset="1" stop-color="rgb(91.921997%, 16.917419%, 25.151062%)" stop-opacity="1"/>
</linearGradient>
</defs>

<g clip-path="url(#clip-0)">
<g clip-path="url(#clip-1)">
<g clip-path="url(#clip-2)">
<path fill-rule="nonzero" fill="url(#linear-pattern-0)" d="M 462.984375 463 L 462.984375 3536.96875 L 3536.960938 3536.96875 L 3536.960938 463 Z M 462.984375 463 "/>
</g>
</g>
</g>
<g clip-path="url(#clip-3)">
<g clip-path="url(#clip-4)">
<g clip-path="url(#clip-5)">
<path fill-rule="nonzero" fill="url(#linear-pattern-1)" d="M 512.984375 513 L 512.984375 3486.96875 L 3486.960938 3486.96875 L 3486.960938 513 Z M 512.984375 513 "/>
</g>
</g>
</g>
<path fill-rule="nonzero" fill="rgb(99.992371%, 99.996948%, 99.995422%)" fill-opacity="1" d="M 2454.46875 2663 L 1546.53125 2663 C 1304.789062 2663 1108.820312 2467.03125 1108.820312 2225.289062 L 1108.820312 1774.710938 C 1108.820312 1532.96875 1304.789062 1337 1546.53125 1337 L 2454.46875 1337 C 2696.210938 1337 2892.179688 1532.96875 2892.179688 1774.710938 L 2892.179688 2225.289062 C 2892.179688 2467.03125 2696.210938 2663 2454.46875 2663 "/>
<path fill-rule="nonzero" fill="rgb(82.10907%, 20.516968%, 20.870972%)" fill-opacity="1" d="M 1688.789062 1999.269531 L 1688.789062 1719.058594 C 1688.789062 1648.859375 1764.789062 1604.980469 1825.589844 1640.078125 L 2068.25 1780.179688 L 2310.921875 1920.28125 C 2371.71875 1955.390625 2371.71875 2043.148438 2310.921875 2078.25 L 2068.25 2218.351562 L 1825.589844 2358.449219 C 1764.789062 2393.550781 1688.789062 2349.671875 1688.789062 2279.46875 L 1688.789062 1999.269531 "/>
</svg>
