<?xml version="1.0" encoding="UTF-8"?>
<svg xmlns="http://www.w3.org/2000/svg" xmlns:xlink="http://www.w3.org/1999/xlink" width="2001" height="2001" viewBox="0 0 2001 2001">
<path fill-rule="evenodd" fill="rgb(100%, 100%, 100%)" fill-opacity="1" d="M 0.921875 0.078125 L 2000.921875 0.078125 L 2000.921875 2000.078125 L 0.921875 2000.078125 L 0.921875 0.078125 "/>
<path fill-rule="evenodd" fill="rgb(0%, 0%, 0%)" fill-opacity="1" d="M 1000.921875 506.410156 C 1185.269531 506.410156 1334.710938 655.851562 1334.710938 840.199219 C 1334.710938 960.078125 1262.21875 1049.703125 1204.289062 1148.144531 L 1000.921875 1493.753906 L 797.546875 1148.144531 C 739.617188 1049.703125 667.128906 960.078125 667.128906 840.199219 C 667.128906 655.851562 816.570312 506.410156 1000.921875 506.410156 Z M 1000.921875 689.648438 C 1086.308594 689.648438 1155.53125 758.871094 1155.53125 844.261719 C 1155.53125 929.648438 1086.308594 998.871094 1000.921875 998.871094 C 915.53125 998.871094 846.308594 929.648438 846.308594 844.261719 C 846.308594 758.871094 915.53125 689.648438 1000.921875 689.648438 "/>
</svg>
